<?xml version="1.0" encoding="utf-8"?>
<!-- Generator: Adobe Illustrator 24.0.3, SVG Export Plug-In . SVG Version: 6.00 Build 0)  -->
<svg version="1.1" id="Layer_1" xmlns="http://www.w3.org/2000/svg" xmlns:xlink="http://www.w3.org/1999/xlink" x="0px" y="0px"
	 viewBox="0 0 72 72" style="enable-background:new 0 0 72 72;" xml:space="preserve">
<style type="text/css">
	.st0{fill:url(#SVGID_1_);}
</style>
<g id="Guides">
</g>
<linearGradient id="SVGID_1_" gradientUnits="userSpaceOnUse" x1="-142.9284" y1="216.8779" x2="-142.9284" y2="216.864" gradientTransform="matrix(2499.9978 0 0 -1386.6951 357356.6875 300769.9688)">
	<stop  offset="0" style="stop-color:#F79810"/>
	<stop  offset="1" style="stop-color:#F8310E"/>
</linearGradient>
<path class="st0" d="M17.9,42.5c0,0.5,0.2,0.8,0.5,1c0.3,0.2,0.7,0.3,1.1,0.2c0.4-0.1,0.6-0.2,0.7-0.4c0.1-0.2,0.2-0.5,0.2-0.9v-4.9
	c0-0.4-0.1-0.6-0.4-0.9c-0.2-0.2-0.5-0.4-0.9-0.4c-0.3,0-0.6,0.1-0.9,0.4c-0.2,0.2-0.4,0.5-0.4,0.9V42.5z M21.8,44.6
	c0,0.3,0.1,0.6,0.3,0.7c0.2,0.2,0.5,0.2,0.9,0.2c0.4,0,0.7-0.1,0.9-0.2c0.2-0.2,0.3-0.4,0.3-0.7V33.1c0-0.3-0.1-0.6-0.4-0.9
	c-0.2-0.2-0.5-0.4-0.9-0.4c-0.3,0-0.6,0.1-0.9,0.4c-0.2,0.2-0.4,0.5-0.4,0.9V44.6z M25.7,45.1c0,0.3,0.1,0.6,0.4,0.7
	c0.2,0.2,0.5,0.2,0.9,0.2c0.4,0,0.7-0.1,0.9-0.2c0.2-0.2,0.3-0.4,0.3-0.7V34.7c0-0.4-0.1-0.6-0.4-0.9c-0.2-0.2-0.5-0.4-0.9-0.4
	c-0.4,0-0.6,0.1-0.9,0.4c-0.2,0.2-0.4,0.5-0.4,0.9L25.7,45.1L25.7,45.1z M29.6,45.2c0,0.6,0.4,0.9,1.3,0.9c0.8,0,1.3-0.3,1.3-0.9
	V28.2c0-0.9-0.3-1.5-0.9-1.6c-0.4-0.1-0.7,0-1.1,0.3c-0.4,0.3-0.5,0.7-0.5,1.3L29.6,45.2L29.6,45.2z M33.5,45.7V27.2
	c0-0.6,0.2-0.9,0.5-1.1c0.8-0.2,1.5-0.3,2.3-0.3c1.7,0,3.3,0.4,4.8,1.2c1.5,0.8,2.7,1.9,3.6,3.3c0.9,1.4,1.5,3,1.6,4.7
	c0.7-0.3,1.4-0.4,2.2-0.4c1.6,0,2.9,0.6,4.1,1.7c1.1,1.1,1.7,2.5,1.7,4c0,1.6-0.6,2.9-1.7,4c-1.1,1.1-2.5,1.7-4,1.7l-14.7,0
	c-0.1,0-0.2-0.1-0.2-0.2C33.5,45.8,33.5,45.7,33.5,45.7L33.5,45.7z"/>
</svg>
