<svg width="72" height="72" viewBox="0 0 72 72" fill="none" xmlns="http://www.w3.org/2000/svg">
<path d="M36 16C24.9545 16 16 24.9543 16 35.9998C16 47.0464 24.9545 56.0002 36 56.0002C47.046 56.0002 56 47.0464 56 35.9998C56 24.955 47.0464 16.001 35.9998 16.001L36 16ZM45.1719 44.8454C44.8127 45.4346 44.0451 45.6192 43.4578 45.2602C38.7613 42.3898 32.8499 41.7414 25.8881 43.3317C25.2172 43.4855 24.5485 43.0649 24.3957 42.3943C24.2421 41.7235 24.6608 41.0547 25.3333 40.9019C32.9519 39.1601 39.4869 39.9098 44.7585 43.1311C45.346 43.4917 45.5322 44.2584 45.1716 44.8459L45.1719 44.8454ZM47.6198 39.4004C47.1675 40.1343 46.2079 40.3645 45.4749 39.9139C40.1002 36.61 31.9044 35.653 25.5456 37.5832C24.721 37.8323 23.85 37.3675 23.5997 36.5443C23.3513 35.7196 23.8163 34.8503 24.6395 34.5995C31.9029 32.3956 40.9325 33.4632 47.1061 37.2569C47.8393 37.7083 48.071 38.6684 47.6196 39.4006L47.6198 39.4004ZM47.83 33.7297C41.3831 29.9011 30.7492 29.5491 24.5948 31.4169C23.6066 31.7166 22.5615 31.1587 22.262 30.1705C21.9625 29.1818 22.5199 28.1374 23.5089 27.8369C30.5736 25.6923 42.3179 26.1066 49.7392 30.5122C50.6281 31.0398 50.9197 32.1878 50.3928 33.0756C49.8674 33.9645 48.7163 34.2575 47.8302 33.7297H47.83Z" fill="#2EBD59"/>
</svg>
